<?xml version="1.0" encoding="UTF-8" standalone="no"?>
<!DOCTYPE svg PUBLIC "-//W3C//DTD SVG 1.1//EN" "http://www.w3.org/Graphics/SVG/1.1/DTD/svg11.dtd">
<svg width="100%" height="100%" viewBox="0 0 1010 410" version="1.1" xmlns="http://www.w3.org/2000/svg" xmlns:xlink="http://www.w3.org/1999/xlink" xml:space="preserve" xmlns:serif="http://www.serif.com/" style="fill-rule:evenodd;clip-rule:evenodd;stroke-linejoin:round;stroke-miterlimit:2;">
    <g transform="matrix(1,0,0,1,-1327.45,-750.116)">
        <g transform="matrix(0.910136,0,0,1.06076,119.739,-45.8838)">
            <path d="M2431.19,901.237L1332.45,901.237C1329.42,901.237 1326.96,899.127 1326.96,896.524L1326.96,755.116C1326.96,752.513 1329.42,750.403 1332.45,750.403L2431.19,750.403C2434.22,750.403 2436.68,752.513 2436.68,755.116L2436.68,896.524C2436.68,899.127 2434.22,901.237 2431.19,901.237ZM2431.19,755.116L1332.45,755.116L1332.45,896.524L2431.19,896.524L2431.19,755.116Z"/>
        </g>
        <g transform="matrix(0.910136,0,0,1.06076,119.739,204.1)">
            <path d="M2431.19,901.237L1332.45,901.237C1329.42,901.237 1326.96,899.127 1326.96,896.524L1326.96,755.116C1326.96,752.513 1329.42,750.403 1332.45,750.403L2431.19,750.403C2434.22,750.403 2436.68,752.513 2436.68,755.116L2436.68,896.524C2436.68,899.127 2434.22,901.237 2431.19,901.237ZM2431.19,755.116L1332.45,755.116L1332.45,896.524L2431.19,896.524L2431.19,755.116Z"/>
        </g>
    </g>
</svg>
