<?xml version="1.0" encoding="UTF-8" standalone="no"?>
<!DOCTYPE svg PUBLIC "-//W3C//DTD SVG 1.1//EN" "http://www.w3.org/Graphics/SVG/1.1/DTD/svg11.dtd">
<svg width="100%" height="100%" viewBox="0 0 760 410" version="1.1" xmlns="http://www.w3.org/2000/svg" xmlns:xlink="http://www.w3.org/1999/xlink" xml:space="preserve" xmlns:serif="http://www.serif.com/" style="fill-rule:evenodd;clip-rule:evenodd;stroke-linejoin:round;stroke-miterlimit:2;">
    <g transform="matrix(1,0,0,1,-1327.45,-750.116)">
        <g transform="matrix(0.682602,0,0,1.06076,422.917,-45.8838)">
            <rect x="1332.45" y="755.116" width="1098.74" height="141.408" style="fill:rgb(11,133,255);"/>
            <path d="M2431.19,901.237L1332.45,901.237C1328.41,901.237 1325.13,899.127 1325.13,896.524L1325.13,755.116C1325.13,752.513 1328.41,750.403 1332.45,750.403L2431.19,750.403C2435.23,750.403 2438.51,752.513 2438.51,755.116L2438.51,896.524C2438.51,899.127 2435.23,901.237 2431.19,901.237ZM2431.19,755.116L1332.45,755.116L1332.45,896.524L2431.19,896.524L2431.19,755.116Z" style="fill:rgb(11,133,255);"/>
        </g>
        <g transform="matrix(0.682602,0,0,1.06076,422.917,204.1)">
            <rect x="1332.45" y="755.116" width="1098.74" height="141.408" style="fill:rgb(11,133,255);"/>
            <path d="M2431.19,901.237L1332.45,901.237C1328.41,901.237 1325.13,899.127 1325.13,896.524L1325.13,755.116C1325.13,752.513 1328.41,750.403 1332.45,750.403L2431.19,750.403C2435.23,750.403 2438.51,752.513 2438.51,755.116L2438.51,896.524C2438.51,899.127 2435.23,901.237 2431.19,901.237ZM2431.19,755.116L1332.45,755.116L1332.45,896.524L2431.19,896.524L2431.19,755.116Z" style="fill:rgb(11,133,255);"/>
        </g>
    </g>
</svg>
